<svg width="20" height="20" viewBox="0 0 20 20" fill="none" xmlns="http://www.w3.org/2000/svg">
<path d="M9.64772 3.31152H6.92475C4.68534 3.31152 3.28125 4.89695 3.28125 7.14145V13.1962C3.28125 15.4407 4.67879 17.0262 6.92475 17.0262H13.3509C15.5976 17.0262 16.9952 15.4407 16.9952 13.1962V10.2628" stroke="#667085" stroke-width="1.25" stroke-linecap="round" stroke-linejoin="round"/>
<path fill-rule="evenodd" clip-rule="evenodd" d="M7.70668 9.23371L13.149 3.79141C13.827 3.11413 14.9259 3.11413 15.604 3.79141L16.4903 4.6777C17.1683 5.35572 17.1683 6.45539 16.4903 7.13268L11.0217 12.6012C10.7253 12.8976 10.3233 13.0644 9.90385 13.0644H7.17578L7.24424 10.3115C7.25443 9.90663 7.41975 9.52065 7.70668 9.23371Z" stroke="#667085" stroke-width="1.25" stroke-linecap="round" stroke-linejoin="round"/>
<path d="M12.3223 4.63232L15.6475 7.95757" stroke="#667085" stroke-width="1.25" stroke-linecap="round" stroke-linejoin="round"/>
</svg>
